{"accessors":[{"bufferView":2,"componentType":5126,"count":7762,"max":[0.3872562646865845,0.1963386833667755,-0.6490640640258789],"min":[-0.34416663646698,-0.10515832155942917,-1.6675660610198975],"type":"VEC3"},{"bufferView":2,"byteOffset":93144,"componentType":5126,"count":7762,"max":[0.9998989701271057,0.9999516606330872,0.9905327558517456],"min":[-0.9999198317527771,-0.9999788403511047,-0.9994421005249023],"type":"VEC3"},{"bufferView":3,"componentType":5126,"count":7762,"max":[0.9999994039535522,0.9997909069061279,0.9447826147079468,1],"min":[-0.9999895691871643,-0.999875009059906,-0.9996041655540466,-1],"type":"VEC4"},{"bufferView":1,"componentType":5126,"count":7762,"max":[1.984971046447754,0.9783229827880859],"min":[1.0145570039749146,0.015406012535095215],"type":"VEC2"},{"bufferView":1,"byteOffset":62096,"componentType":5126,"count":7762,"max":[1.984971046447754,0.9783229827880859],"min":[1.0145570039749146,0.015406012535095215],"type":"VEC2"},{"bufferView":1,"byteOffset":124192,"componentType":5126,"count":7762,"max":[1.984971046447754,0.9783229827880859],"min":[1.0145570039749146,0.015406012535095215],"type":"VEC2"},{"bufferView":1,"byteOffset":186288,"componentType":5126,"count":7762,"max":[1.984971046447754,0.9783229827880859],"min":[1.0145570039749146,0.015406012535095215],"type":"VEC2"},{"bufferView":0,"componentType":5125,"count":39693,"type":"SCALAR"},{"bufferView":2,"byteOffset":186288,"componentType":5126,"count":13997,"max":[0.2344273328781128,0.18080466985702515,0.003245919942855835],"min":[-0.20909273624420166,-0.184989333152771,-1.1160451173782349],"type":"VEC3"},{"bufferView":2,"byteOffset":354252,"componentType":5126,"count":13997,"max":[0.9999968409538269,0.9999905824661255,0.9992945194244385],"min":[-0.9999949932098389,-0.9999935030937195,-0.6442641019821167],"type":"VEC3"},{"bufferView":3,"byteOffset":124192,"componentType":5126,"count":13997,"max":[0.9999959468841553,0.9999847412109375,0.9989299178123474,-1],"min":[-0.999975860118866,-0.9999264478683472,-0.9999734163284302,-1],"type":"VEC4"},{"bufferView":1,"byteOffset":248384,"componentType":5126,"count":13997,"max":[0.9972590208053589,0.9796429872512817],"min":[-0.6426990032196045,0.010617971420288086],"type":"VEC2"},{"bufferView":1,"byteOffset":360360,"componentType":5126,"count":13997,"max":[0.9972590208053589,0.9796429872512817],"min":[-0.6426990032196045,0.010617971420288086],"type":"VEC2"},{"bufferView":1,"byteOffset":472336,"componentType":5126,"count":13997,"max":[0.9972590208053589,0.9796429872512817],"min":[-0.6426990032196045,0.010617971420288086],"type":"VEC2"},{"bufferView":1,"byteOffset":584312,"componentType":5126,"count":13997,"max":[0.9972590208053589,0.9796429872512817],"min":[-0.6426990032196045,0.010617971420288086],"type":"VEC2"},{"bufferView":0,"byteOffset":158772,"componentType":5125,"count":69894,"type":"SCALAR"}],"asset":{"extras":{"author":"RealityRoller (https://sketchfab.com/RealityRoller)","license":"CC-BY-4.0 (http://creativecommons.org/licenses/by/4.0/)","source":"https://sketchfab.com/3d-models/cutting-ties-full-outfit-9837589c6b9c43919c8e944754745d09","title":"Cutting Ties - Full Outfit"},"generator":"Sketchfab-11.30.0","version":"2.0"},"bufferViews":[{"buffer":0,"byteLength":438348,"name":"floatBufferViews","target":34963},{"buffer":0,"byteLength":696288,"byteOffset":438348,"byteStride":8,"name":"floatBufferViews","target":34962},{"buffer":0,"byteLength":522216,"byteOffset":1134636,"byteStride":12,"name":"floatBufferViews","target":34962},{"buffer":0,"byteLength":348144,"byteOffset":1656852,"byteStride":16,"name":"floatBufferViews","target":34962}],"buffers":[{"byteLength":2004996,"uri":"data:application/octet-stream;base64,"}],"images":[{"uri":"data:application/octet-stream;base64,"},{"uri":"data:application/octet-stream;base64,"},{"uri":"data:application/octet-stream;base64,"},{"uri":"data:application/octet-stream;base64,"},{"uri":"data:application/octet-stream;base64,"},{"uri":"data:application/octet-stream;base64,"}],"materials":[{"doubleSided":true,"name":"Cutting_Ties_-_Shirt","normalTexture":{"index":2},"pbrMetallicRoughness":{"baseColorTexture":{"index":0},"metallicRoughnessTexture":{"index":1}}},{"doubleSided":true,"name":"Cutting_TIes_-_Pants","normalTexture":{"index":5},"pbrMetallicRoughness":{"baseColorTexture":{"index":3},"metallicRoughnessTexture":{"index":4}}}],"meshes":[{"name":"Object_0","primitives":[{"attributes":{"NORMAL":1,"POSITION":0,"TANGENT":2,"TEXCOORD_0":3,"TEXCOORD_1":4,"TEXCOORD_2":5,"TEXCOORD_3":6},"indices":7,"material":0,"mode":4}]},{"name":"Object_1","primitives":[{"attributes":{"NORMAL":9,"POSITION":8,"TANGENT":10,"TEXCOORD_0":11,"TEXCOORD_1":12,"TEXCOORD_2":13,"TEXCOORD_3":14},"indices":15,"material":1,"mode":4}]}],"nodes":[{"children":[1],"matrix":[1.0195531845092773,0,0,0,0,2.2638628405442004e-16,-1.0195531845092773,0,0,1.0195531845092773,2.2638628405442004e-16,0,0,0,0,1],"name":"Sketchfab_model"},{"children":[2],"name":"root"},{"children":[3],"matrix":[1,0,0,0,0,2.220446049250313e-16,1,0,0,-1,2.220446049250313e-16,0,0,0,0,1],"name":"GLTF_SceneRootNode"},{"children":[4,5],"matrix":[1,0,0,0,0,-1.685873969314855e-7,0.9999999999999858,0,0,-0.9999999999999858,-1.685873969314855e-7,0,0,0.013219133019447327,0,1],"name":"Cutting TIes - Full Outfit_0"},{"mesh":0,"name":"Object_4"},{"mesh":1,"name":"Object_5"}],"samplers":[{"magFilter":9729,"minFilter":9987,"wrapS":10497,"wrapT":10497}],"scene":0,"scenes":[{"name":"Sketchfab_Scene","nodes":[0]}],"textures":[{"sampler":0,"source":0},{"sampler":0,"source":1},{"sampler":0,"source":2},{"sampler":0,"source":3},{"sampler":0,"source":4},{"sampler":0,"source":5}]}